<?xml version="1.0" encoding="utf-8"?>
<!-- Generator: Adobe Illustrator 23.0.1, SVG Export Plug-In . SVG Version: 6.00 Build 0)  -->
<svg version="1.1" id="Layer_1" xmlns="http://www.w3.org/2000/svg" xmlns:xlink="http://www.w3.org/1999/xlink" x="0px" y="0px"
	 viewBox="0 0 600 600" style="enable-background:new 0 0 600 600;" xml:space="preserve">
<style type="text/css">
	.st0{display:none;}
	.st1{display:inline;fill:#ffffff;}
	.st2{fill:#ffffff;}
</style>
<g id="Background" class="st0">
	<rect id="XMLID_20_" class="st1" width="600" height="600"/>
</g>
<g id="Logo">
	<g id="XMLID_17_">
		<polygon id="XMLID_10_" class="st2" points="217.7,129.9 268,129.9 268,285.6 380.9,180.2 276.3,180.2 276.3,129.9 441.6,129.9
			441.6,180.2 320.7,297.6 441.6,470.1 391.3,470.1 268,300 268,470.1 217.7,470.1 		"/>
		<rect id="XMLID_11_" x="133.3" y="129.9" class="st2" width="76.6" height="50.3"/>
		<polygon id="XMLID_18_" class="st2" points="340.6,419 377.2,470 280.7,469.3 280.7,419 		"/>
		<polygon id="XMLID_19_" class="st2" points="522.9,419 522.9,469.3 452.8,470.1 418,419 		"/>
		<polygon id="XMLID_16_" class="st2" points="190.3,322.7 77.1,470.1 202.7,470.1 202.7,417.7 175.6,417.4 209.9,372.7 		"/>
	</g>
</g>
</svg>
